<svg width="1024" height="1024" fill="none" xmlns="http://www.w3.org/2000/svg"><path opacity=".45" fill="#006687" d="M510.516 632.875h513.897V1024H510.516z"/><path fill="#FFCE0C" d="M0 632.875h510.516V1024H0z"/><path fill="#F04A40" fill-opacity=".45" d="M0 0h1024.41v632.875H0z"/><path d="M711.441 165c11.046 0 20-8.954 20-20s-8.954-20-20-20v40zm-159.732 95.154c0-36.339 7.806-57.268 17.917-70.094 10.066-12.77 24.623-20.329 44.204-25.39l-10.01-38.727c-24.015 6.207-48.015 17.036-65.608 39.354-17.548 22.262-26.503 53.123-26.503 94.857h40zM611.235 165H711.441v-40H611.235v40zm2.595-.33c-.834.216-1.723.33-2.595.33v-40c-2.516 0-4.99.316-7.415.943l10.01 38.727z" fill="#FFCE0C"/><mask id="a" maskUnits="userSpaceOnUse" x="72" y="258.456" width="880" height="522" fill="#000"><path fill="#fff" d="M72 258.456h880v522H72z"/><path d="M112 448.077v199.494c5.755 33.568 47.003 90.155 103.597 90.155 46.043 0 68.106-20.141 68.106-20.141l81.535-83.442c18.225-18.223 45.083-28.773 54.676-28.773h187.05c37.41 0 46.043 29.732 139.089 115.093 45.084 28.773 82.494 17.263 82.494 17.263 80.575-23.018 81.535-90.155 81.535-90.155L912 443.281c-34.532-140.988-164.029-144.825-164.029-144.825H274.11c-70.024 0-148.681 63.301-162.11 149.621z"/></mask><path d="M112 448.077v199.494c5.755 33.568 47.003 90.155 103.597 90.155 46.043 0 68.106-20.141 68.106-20.141l81.535-83.442c18.225-18.223 45.083-28.773 54.676-28.773h187.05c37.41 0 46.043 29.732 139.089 115.093 45.084 28.773 82.494 17.263 82.494 17.263 80.575-23.018 81.535-90.155 81.535-90.155L912 443.281c-34.532-140.988-164.029-144.825-164.029-144.825H274.11c-70.024 0-148.681 63.301-162.11 149.621z" fill="#FFCE0C"/><path d="M112 448.077v199.494c5.755 33.568 47.003 90.155 103.597 90.155 46.043 0 68.106-20.141 68.106-20.141l81.535-83.442c18.225-18.223 45.083-28.773 54.676-28.773h187.05c37.41 0 46.043 29.732 139.089 115.093 45.084 28.773 82.494 17.263 82.494 17.263 80.575-23.018 81.535-90.155 81.535-90.155L912 443.281c-34.532-140.988-164.029-144.825-164.029-144.825H274.11c-70.024 0-148.681 63.301-162.11 149.621z" stroke="#068" stroke-width="80" stroke-linejoin="round" mask="url(#a)"/><path d="M255.298 404.704c0-13.389 10.789-24.243 24.098-24.243h26.107c13.309 0 24.098 10.854 24.098 24.243v185.863c0 13.389-10.789 24.243-24.098 24.243h-26.107c-13.309 0-24.098-10.854-24.098-24.243V404.704z" fill="#F04A40"/><path d="M200.073 535.01c-13.309 0-24.098-10.854-24.098-24.243v-26.263c0-13.39 10.789-24.243 24.098-24.243h184.753c13.309 0 24.098 10.853 24.098 24.243v26.263c0 13.389-10.789 24.243-24.098 24.243H200.073z" fill="#F04A40"/><circle cx="679.433" cy="493.492" r="40.284" fill="#068"/><circle cx="759.637" cy="412.559" r="40.284" fill="#068"/><circle cx="759.637" cy="576.446" r="40.284" fill="#068"/><circle cx="839.841" cy="495.513" r="40.284" fill="#068"/></svg>